<svg xmlns="http://www.w3.org/2000/svg" viewBox="0 0 720 960" role="img" aria-labelledby="title desc">
  <title id="title">Ruby Georgette Lehenga</title>
  <desc id="desc">A ruby red lehenga set with mirror work and gold detailing.</desc>
  <defs>
    <linearGradient id="bg" x1="0" y1="0" x2="1" y2="1">
      <stop offset="0" stop-color="#fff7f1"/>
      <stop offset="1" stop-color="#f3d7c8"/>
    </linearGradient>
    <linearGradient id="ruby" x1="0" y1="0" x2="1" y2="1">
      <stop offset="0" stop-color="#d91f3f"/>
      <stop offset="0.52" stop-color="#97122c"/>
      <stop offset="1" stop-color="#5d0b1d"/>
    </linearGradient>
    <linearGradient id="gold" x1="0" y1="0" x2="1" y2="0">
      <stop offset="0" stop-color="#f9df8b"/>
      <stop offset="0.55" stop-color="#d7a83f"/>
      <stop offset="1" stop-color="#fff2b8"/>
    </linearGradient>
    <filter id="shadow" x="-20%" y="-20%" width="140%" height="140%">
      <feDropShadow dx="0" dy="18" stdDeviation="18" flood-color="#6b1023" flood-opacity=".24"/>
    </filter>
  </defs>
  <rect width="720" height="960" fill="url(#bg)"/>
  <circle cx="610" cy="130" r="98" fill="#f6b8a6" opacity=".35"/>
  <circle cx="110" cy="820" r="150" fill="#f1c16c" opacity=".22"/>
  <g filter="url(#shadow)">
    <path d="M292 156h136l58 176-58 28H292l-58-28 58-176Z" fill="url(#ruby)"/>
    <path d="M278 182c34 22 128 23 164 0l-15 44c-41 18-96 18-134 0l-15-44Z" fill="url(#gold)" opacity=".88"/>
    <path d="M235 332h250l106 460c-66 44-397 44-463 0l107-460Z" fill="url(#ruby)"/>
    <path d="M185 759c74 43 281 73 350 2l37 67c-91 52-337 54-424 0l37-69Z" fill="url(#gold)"/>
    <path d="M242 365c70 33 166 33 237 0" fill="none" stroke="#f5ce70" stroke-width="13" stroke-linecap="round"/>
    <path d="M220 462c83 47 200 51 279 1" fill="none" stroke="#f1bf59" stroke-width="8" stroke-linecap="round" opacity=".75"/>
    <path d="M195 570c102 48 234 49 329 0" fill="none" stroke="#f1bf59" stroke-width="8" stroke-linecap="round" opacity=".75"/>
    <g fill="#ffe8a3">
      <circle cx="285" cy="424" r="9"/><circle cx="360" cy="438" r="9"/><circle cx="437" cy="424" r="9"/>
      <circle cx="253" cy="528" r="8"/><circle cx="327" cy="548" r="8"/><circle cx="404" cy="548" r="8"/><circle cx="477" cy="528" r="8"/>
      <circle cx="221" cy="648" r="7"/><circle cx="301" cy="671" r="7"/><circle cx="390" cy="675" r="7"/><circle cx="476" cy="653" r="7"/>
    </g>
  </g>
  <text x="360" y="900" text-anchor="middle" font-family="Inter, Arial, sans-serif" font-size="34" font-weight="700" fill="#5d0b1d">Ruby Georgette Lehenga</text>
</svg>
